
<svg xmlns="http://www.w3.org/2000/svg" version="1.1" xmlns:xlink="http://www.w3.org/1999/xlink" preserveAspectRatio="none" x="0px" y="0px" width="1024px" height="768px" viewBox="0 0 1024 768">
<defs>
<path id="Symbol_1_0_Layer0_0_1_STROKES" stroke="#13445c" stroke-width="4" stroke-linejoin="round" stroke-linecap="round" fill="none" d="
M 636.55 16.3
L 653.4 43.1
Q 701.15 56.45 708.65 122.6 734.1 259.05 728.95 428.1 728.2 439.4 720.35 444.5
L 720.35 474.35
Q 695.3 486.1 673.45 473.5
L 673.45 445.7
Q 667.25 441.55 670.2 431.75 668.75 434.3 666.85 436.5
L 666.85 464.45
Q 665.65 471.05 659.4 474.35 561.6 490.8 456.75 472.65 444.4 470.1 443.2 457.95
L 443.2 435.85
Q 441.65 444.35 435.7 449.3
L 435.15 471.35
Q 413.7 484.55 393.8 471.35
L 393.8 451.55
Q 392.65 450.7 391.65 449.7 386.3 444.15 386.8 433.65 386.45 354.9 391.65 273.95 396.6 196.5 406.6 116.95 420.05 54.8 468.45 45.25
L 486.15 16.3
Q 482.65 -1.6 517.3 -5.3 559.1 -10.05 613.65 -3.15 635.95 0.3 636.55 16.3 562.1 -0.25 486.15 16.3
M 708.65 122.6
Q 664.5 146.85 666.85 285.3 667.15 294.6 667.6 304.25 668.15 314.65 668.9 325.25 668.55 363.4 674 401.45 676.65 420.25 670.2 431.75
M 674.1 105.75
Q 662.95 190.5 666.85 285.3
M 673.45 445.7
Q 675.75 447.2 679.3 447.95 695.9 454 716 446.65 718.4 445.75 720.35 444.5
M 653.4 43.1
Q 622.2 121.95 566.1 125.2 528.55 126.9 510.55 97.3 492.9 68.25 468.45 45.25
M 406.6 116.95
Q 424.4 122.4 438.2 149.2 435.6 123.8 431.7 98.8
M 268.7 47.4
Q 255.85 37.1 247.55 19.3 223.3 36 187.05 48.25 232.35 52.3 268.7 47.4 319.15 62 324.45 118.7 345.55 262.45 345.65 420.4
L 345.65 437.6
Q 344.4 445.85 340.4 451
L 342.2 474.8
Q 341.05 484.85 333.1 484.75
L 304.6 484.75
Q 297.15 484.3 297.4 476.1
L 297.45 455.1
Q 291.2 451.45 289.55 444.35 287.6 446.95 285.4 449.2
L 285.15 466.15
Q 281.5 481.55 260.5 482.55
L 85.05 482.55
Q 67.9 481.6 66.05 468.75
L 66.05 448.85
Q 62.8 448.25 60.35 446.65 59.3 452.8 54.85 454.05 54.7 454.1 54.6 454.15
L 54.6 482.15
Q 33.15 488.5 13.2 482.15
L 13.2 454.1
Q 10.3 453.5 7.35 452.75 0.5 451.35 0 440.2 0.35 274.2 21.15 125.6
L 31.9 91.9
Q 44.8 49.1 83.75 49.05 94.1 35.15 101.5 16.7
L 108.35 6.6
Q 111.65 1.75 115.3 4.2 177.35 -4.65 232.4 5.05 241.45 6.95 247.55 19.3
M 101.5 16.7
Q 125.6 34.7 162.85 48.25
L 187.05 48.25
Q 178.6 43.95 170.6 39.55 139.15 22.3 115.3 4.2
M 170.6 39.55
Q 207.75 23.95 232.4 5.05
M 297.25 107.05
Q 294.65 129.8 292.95 152.7 305.5 130.1 324.45 118.7
M 83.75 49.05
Q 84 49 84.3 49.05 123.75 49.25 162.85 48.25
M 95 303.65
Q 96.35 366.35 69.95 423.35 78.7 437.15 84 452.75 152.25 465.9 250.2 462.5 255.3 462.35 259.9 461.6 278.9 438.65 292.05 413.45 271.95 356 278.65 300.7 124.2 291.65 82.45 302.4 83.65 366.5 61.75 408.7
L 69.95 423.35
M 292.95 152.7
Q 284.25 267.7 297.6 368.75 302.85 408.6 298.75 424.3 295.65 436.15 289.55 444.35
M 21.15 125.6
Q 56.55 147.45 59.3 233.3 60.05 147.9 54.85 106.15
M 297.45 455.1
Q 303.15 458.4 312.8 458.8 332.25 461.45 340.4 451
M 259.9 461.6
Q 275.55 459 285.4 449.2
M 13.2 454.1
Q 35.7 458.8 54.6 454.15
M 59.3 233.3
Q 58.65 310.65 53.1 423.8 52.05 441.15 60.35 446.65
M 66.05 448.85
Q 74.75 450.95 84 452.75
M 438.2 149.2
Q 450.5 270.05 433.4 400.45 433.3 425.1 443.2 435.85 449.15 442.3 458.75 443.75 555.7 458.55 641.25 448.85 658.45 446.2 666.85 436.5
M 393.8 451.55
Q 395.5 452.75 397.55 453.6 416.9 458.05 431.7 451.9 433.9 450.75 435.7 449.3
M 263.95 310.15
Q 259.9 365.6 284.7 422.1"/>
</defs>

<g transform="matrix( 1.385894775390625, 0, 0, 1.385894775390625, 4,11.45) ">
<g transform="matrix( 1, 0, 0, 1, 0,0) ">
<use xlink:href="#Symbol_1_0_Layer0_0_1_STROKES"/>
</g>
</g>
</svg>
