<svg version="1.1" xmlns="http://www.w3.org/2000/svg" xmlns:xlink="http://www.w3.org/1999/xlink" width="48" height="48"><defs><linearGradient x1="13.87758" y1="9.82524" x2="50.87393" y2="54.92628" gradientUnits="userSpaceOnUse" id="color-1"><stop offset="0" stop-color="#000000" stop-opacity="0.37"></stop><stop offset="1" stop-color="#000000" stop-opacity="0"></stop></linearGradient><filter id="dropshadow-base"><feColorMatrix type="matrix" values="0 0 0 0 0  0 0 0 0 0  0 0 0 0 0  0 0 0 .8 0"></feColorMatrix> <feOffset dx="0" dy="1"></feOffset> <feGaussianBlur stdDeviation="1"></feGaussianBlur> <feComposite in="SourceGraphic"></feComposite></filter><filter id="dropshadow-banner" x="-10%" y="-10%" width="120%" height="130%"><feColorMatrix type="matrix" values="0 0 0 0 0  0 0 0 0 0  0 0 0 0 0  0 0 0 .4 0"></feColorMatrix> <feOffset dx="0" dy="1"></feOffset> <feGaussianBlur stdDeviation="0.5"></feGaussianBlur> <feComposite in="SourceGraphic"></feComposite></filter></defs><g fill="none" fill-rule="nonzero" stroke="none" stroke-width="none" stroke-linecap="butt" stroke-linejoin="miter" stroke-miterlimit="10" stroke-dasharray="" stroke-dashoffset="0" font-family="none" font-weight="none" font-size="none" text-anchor="none" style="mix-blend-mode: normal"><path d="M2,24c0,-12.15026 9.84974,-22 22,-22c12.15026,0 22,9.84974 22,22c0,12.15026 -9.84974,22 -22,22c-12.15026,0 -22,-9.84974 -22,-22z" id="base 1 5" fill="#57068c" stroke-width="1"></path><path d="M13.87758,30.91361l1.06623,-1.07972c0.27668,-0.26993 0.65458,-0.44539 1.07297,-0.44539c0.10798,0 0.21595,0.01349 0.31717,0.03374l4.62257,0.965l0,-7.92596l-2.27178,-2.27178c-1.09744,-1.09744 -1.77716,-2.61504 -1.77716,-4.29082c0,-3.35389 2.71956,-6.07344 6.07344,-6.07344c1.67694,0 3.19531,0.67989 4.29443,1.77901l16.75152,16.75152c0.46738,0.46738 0.85895,1.01056 1.15467,1.6095c-2.20226,7.83578 -8.63555,13.90061 -16.67889,15.57352z" fill="url(#color-1)" stroke-width="1"></path><path d="M19.60687,20.9464v-5.04771c0,-1.86252 1.51161,-3.37414 3.37414,-3.37414c1.86252,0 3.37414,1.51161 3.37414,3.37414v5.04771c1.62634,-1.08647 2.69931,-2.94225 2.69931,-5.04771c0,-3.35389 -2.71956,-6.07345 -6.07345,-6.07345c-3.35389,0 -6.07345,2.71956 -6.07345,6.07345c0,2.10546 1.07298,3.96124 2.69931,5.04771zM32.88073,27.19531l-6.12744,-3.05022c-0.22944,-0.09448 -0.47238,-0.14846 -0.73556,-0.14846h-1.01224v-8.09793c0,-1.12021 -0.90427,-2.02448 -2.02448,-2.02448c-1.12021,0 -2.02448,0.90427 -2.02448,2.02448v14.48855l-4.62257,-0.965c-0.10122,-0.02024 -0.2092,-0.03374 -0.31717,-0.03374c-0.41839,0 -0.7963,0.17546 -1.07298,0.44539l-1.06623,1.07972l6.6673,6.6673c0.37116,0.36441 0.87728,0.59385 1.43064,0.59385h9.17091c1.01899,0 1.79504,-0.74906 1.93676,-1.72756l1.01899,-7.11269c0.0135,-0.09448 0.02024,-0.1822 0.02024,-0.27668c-0.00675,-0.83679 -0.51962,-1.55885 -1.24168,-1.86252z" fill="none" stroke-width="0"></path><path d="M16.90756,15.89869c0,-3.35389 2.71956,-6.07345 6.07345,-6.07345c3.35389,0 6.07345,2.71956 6.07345,6.07345c0,2.10546 -1.07298,3.96124 -2.69931,5.04771v-5.04771c0,-1.86252 -1.51161,-3.37414 -3.37414,-3.37414c-1.86252,0 -3.37414,1.51161 -3.37414,3.37414v5.04771c-1.62634,-1.08647 -2.69931,-2.94225 -2.69931,-5.04771zM34.12242,29.05783c0,0.09448 -0.00675,0.1822 -0.02024,0.27668l-1.01899,7.11269c-0.14171,0.9785 -0.91777,1.72756 -1.93676,1.72756h-9.17091c-0.55336,0 -1.05948,-0.22944 -1.43064,-0.59385l-6.6673,-6.6673l1.06623,-1.07972c0.27668,-0.26993 0.65458,-0.44539 1.07298,-0.44539c0.10797,0 0.21594,0.0135 0.31717,0.03374l4.62257,0.965v-14.48855c0,-1.12021 0.90427,-2.02448 2.02448,-2.02448c1.12021,0 2.02448,0.90427 2.02448,2.02448v8.09793h1.01224c0.26318,0 0.50612,0.05399 0.73556,0.14846l6.12744,3.05022c0.72207,0.30367 1.23493,1.02574 1.24168,1.86252z" fill="#ffffff" stroke-width="0"></path><path d="M2,24c0,-12.15026 9.84974,-22 22,-22c12.15026,0 22,9.84974 22,22c0,12.15026 -9.84974,22 -22,22c-12.15026,0 -22,-9.84974 -22,-22z" id="base 1 1 1" fill="none" stroke-width="1"></path><g fill="#000000" stroke-width="1" font-family="Roboto, sans-serif" font-weight="400" font-size="14" text-anchor="start"></g><rect x="2" y="2" width="44" height="22" fill="none" stroke-width="1"></rect><path d="M2,24v-22h44v22z" fill="none" stroke-width="1"></path><path d="M2,24v-22h44v22z" fill="none" stroke-width="1"></path><path d="M2,24v-22h44v22z" fill="none" stroke-width="1"></path><path d="M2,24v-22h44v22z" fill="none" stroke-width="1"></path><path d="M24,2c12.15026,0 22,9.84974 22,22h-44c0,-12.15026 9.84974,-22 22,-22z" id="base 1 1 1" fill-opacity="0.1" fill="#000000" stroke-width="1"></path></g></svg>